<?xml version="1.0" standalone="no"?>
<!DOCTYPE svg PUBLIC "-//W3C//DTD SVG 20010904//EN"
 "http://www.w3.org/TR/2001/REC-SVG-20010904/DTD/svg10.dtd">
<svg version="1.0" xmlns="http://www.w3.org/2000/svg"
 width="2000.000000pt" height="1500.000000pt" viewBox="0 0 2000.000000 1500.000000"
 preserveAspectRatio="xMidYMid meet">

<g transform="translate(0.000000,1500.000000) scale(0.100000,-0.100000)"
fill="#000000" stroke="none">
<path d="M7796 10518 c-3 -24 -8 -87 -12 -140 l-6 -98 171 0 c129 0 173 3 175
13 3 6 7 69 10 140 l6 127 -170 0 -169 0 -5 -42z"/>
<path d="M11866 10433 c3 -71 7 -134 10 -140 2 -10 46 -13 175 -13 l171 0 -6
98 c-4 53 -9 116 -12 140 l-5 42 -169 0 -170 0 6 -127z"/>
<path d="M9480 9379 c-80 -5 -158 -12 -175 -17 l-30 -8 -477 -1825 c-263
-1003 -476 -1829 -474 -1835 8 -20 157 -53 291 -65 153 -13 387 -6 500 15 105
21 184 61 208 106 10 19 53 186 96 370 l78 335 430 3 429 2 90 -352 c52 -205
97 -364 109 -382 26 -39 92 -72 185 -93 176 -39 857 -9 926 41 15 12 -21 159
-450 1842 -257 1006 -470 1832 -474 1836 -21 21 -196 29 -637 33 -264 2 -545
-1 -625 -6z m480 -1126 c0 -5 54 -255 120 -557 66 -303 118 -551 116 -553 -2
-2 -129 -2 -283 -1 l-280 3 146 558 c124 474 148 557 163 557 10 0 18 -3 18
-7z"/>
<path d="M7784 4623 c4 -54 9 -117 12 -140 l5 -43 169 0 170 0 -6 128 c-3 70
-7 133 -10 140 -2 9 -46 12 -175 12 l-171 0 6 -97z"/>
<path d="M11876 4708 c-3 -7 -7 -70 -10 -140 l-6 -128 170 0 169 0 5 43 c3 23
8 86 12 140 l6 97 -171 0 c-129 0 -173 -3 -175 -12z"/>
</g>
</svg>
